<?xml version="1.0" encoding="UTF-8" standalone="no"?>
<!-- Created with Inkscape (http://www.inkscape.org/) -->

<svg
   width="300"
   height="300"
   viewBox="0 0 79.375001 79.374999"
   version="1.1"
   id="svg1"
   inkscape:version="1.3.2 (091e20ef0f, 2023-11-25)"
   sodipodi:docname="glass.svg"
   xmlns:inkscape="http://www.inkscape.org/namespaces/inkscape"
   xmlns:sodipodi="http://sodipodi.sourceforge.net/DTD/sodipodi-0.dtd"
   xmlns="http://www.w3.org/2000/svg"
   xmlns:svg="http://www.w3.org/2000/svg">
  <sodipodi:namedview
     id="namedview1"
     pagecolor="#505050"
     bordercolor="#eeeeee"
     borderopacity="1"
     inkscape:showpageshadow="0"
     inkscape:pageopacity="0"
     inkscape:pagecheckerboard="0"
     inkscape:deskcolor="#d1d1d1"
     inkscape:document-units="mm"
     inkscape:zoom="1.4340417"
     inkscape:cx="115.40808"
     inkscape:cy="141.90662"
     inkscape:window-width="1896"
     inkscape:window-height="1019"
     inkscape:window-x="0"
     inkscape:window-y="0"
     inkscape:window-maximized="1"
     inkscape:current-layer="layer1" />
  <defs
     id="defs1" />
  <g
     inkscape:label="Layer 1"
     inkscape:groupmode="layer"
     id="layer1">
    <path
       id="rect1"
       style="fill:#ffffff;fill-opacity:1;stroke:#254750;stroke-width:0.000167443;stroke-linecap:round;stroke-linejoin:round;paint-order:fill markers stroke"
       d="M 23.540103,3.7033046 C 17.821088,7.0877602 13.453448,12.705746 11.629868,19.107016 c -1.7342566,5.936013 -1.304437,12.483885 1.226322,18.128968 2.180051,4.93282 5.903297,9.170779 10.529166,11.939482 4.535983,2.740083 9.90849,4.083439 15.198914,3.744127 3.0529,-0.185233 6.074014,-0.905646 8.878533,-2.128465 5.2226,9.053044 10.432783,18.11368 15.680394,27.151989 0.795295,1.142669 2.369005,1.751515 3.700359,1.260464 1.476418,-0.516641 2.289464,-2.31318 1.810607,-3.783229 -0.30616,-1.057333 -1.009888,-1.928035 -1.508053,-2.894529 -4.775092,-8.282026 -9.550181,-16.564054 -14.325272,-24.846081 5.242436,-3.89091 8.956606,-9.79347 10.172517,-16.215849 1.0408,-5.361561 0.371285,-11.045065 -1.918404,-16.005119 -2.226886,-4.877685 -5.965102,-9.0551104 -10.586989,-11.7708064 -4.427845,-2.625675 -9.63274,-3.9295 -14.774554,-3.650922 -4.273342,0.217163 -8.493455,1.476055 -12.173295,3.666252 z m 3.360379,5.2109611 c 3.417505,-1.9598408 7.413306,-2.9190561 11.349248,-2.6763771 4.425869,0.261339 8.741673,2.026311 12.075301,4.9464334 2.284648,1.998142 4.115419,4.493752 5.308227,7.284737 1.526117,3.534811 2.016755,7.510505 1.377075,11.310783 -0.44617,2.702273 -1.438887,5.31528 -2.904294,7.615897 -1.584601,2.483737 -3.73288,4.626066 -6.196799,6.19805 -4.063608,2.60653 -9.053378,3.678942 -13.839264,2.958463 -3.904533,-0.577245 -7.644209,-2.312434 -10.573789,-4.976289 -2.952831,-2.644092 -5.106541,-6.18263 -6.08658,-10.04352 -0.878423,-3.408899 -0.848021,-7.065896 0.09837,-10.464822 1.022615,-3.695644 3.110244,-7.090931 5.966212,-9.648691 0.969523,-0.872549 2.025243,-1.6593909 3.139367,-2.3313289 0.09565,-0.057754 0.191232,-0.1156416 0.286923,-0.1733354 z" />
  </g>
</svg>
